<svg width="77" height="65" viewBox="0 0 77 65" fill="none" xmlns="http://www.w3.org/2000/svg">
<path d="M67.6328 64.8V9V0H67.7528C72.7234 0 76.7528 4.02944 76.7528 9V64.8H67.6328Z" fill="white"/>
<path d="M63.7197 64.8H45.5672C42.1218 64.8 38.919 63.0264 37.0909 60.1059L34.3955 55.8H63.7197V64.8Z" fill="white"/>
<path d="M63.7197 50.2805H36.4798C33.0341 50.2805 29.8312 48.5065 28.0031 45.5857L25.3086 41.2805H63.7197V50.2805Z" fill="white"/>
<path d="M63.7197 50.2805H36.4798C33.0341 50.2805 29.8312 48.5065 28.0031 45.5857L25.3086 41.2805H63.7197V50.2805Z" fill="white"/>
<path d="M63.7197 36.1604H27.6419C24.1962 36.1604 20.9933 34.3864 19.1652 31.4656L16.4707 27.1604H63.7197V36.1604Z" fill="white"/>
<path d="M63.7197 22.0402H18.804C15.3583 22.0402 12.1554 20.2663 10.3273 17.3455L7.63281 13.0402H63.7197V22.0402Z" fill="white"/>
<path d="M63.7197 22.0402H18.804C15.3583 22.0402 12.1554 20.2663 10.3273 17.3455L7.63281 13.0402H63.7197V22.0402Z" fill="white"/>
<path d="M67.6328 9C45.3314 9 32.0545 9 11.1778 9C7.73208 9 4.52257 7.22607 2.69454 4.30528L0 0H67.6328V9Z" fill="white"/>
</svg>
